<svg xmlns="http://www.w3.org/2000/svg" width="24" height="24"><path d="M7 1h17v2H7V1zm0 7h17V6H7v2zm0 5h17v-2H7v2zm0 5h17v-2H7v2zm0 5h17v-2H7v2zM1.489 7h1.353V1h-1.14c0 .91-.809 1.07-1.702 1.111v1h1.489V7zm2.433 6.667H2.095c.823-.74 1.722-1.627 1.722-2.782C3.817 9.74 3.055 9 1.876 9c-.642 0-1.288.204-1.833.656l.423 1.148c.352-.279.715-.524 1.167-.524.486 0 .754.255.754.717-.008.774-.858 1.527-2.387 3.018v.958h3.922v-1.306zm-.87 6.124c.499-.266.771-.715.771-1.288 0-.748-.568-1.503-1.836-1.503-.571 0-1.241.142-1.74.482l.307 1.161c.432-.284.831-.394 1.15-.394.428 0 .674.174.674.478 0 .425-.52.538-.827.538H.974v1.154h.601c.438 0 .949.183.949.701 0 .39-.329.633-.86.633-.451 0-.887-.163-1.282-.397l-.304 1.2c.5.322 1.11.444 1.675.444C3.097 23 4 22.272 4 21.188c0-.646-.371-1.178-.948-1.397z"/></svg>