<svg width="24" height="24" xmlns="http://www.w3.org/2000/svg" fill-rule="evenodd" clip-rule="evenodd"><path d="M2.458 9.012a10.01 10.01 0 00-.458 3c0 5.52 4.481 10 10 10 5.52 0 10-4.48 10-10 0-5.519-4.48-10-10-10a9.944 9.944 0 00-5.703 1.796L8 6.012H1.42L3.355 0l1.718 2.223A11.931 11.931 0 0112 .012c6.623 0 12 5.377 12 12S18.623 24 12 24 0 18.635 0 12.012c0-1.036.132-2.041.379-3h2.079zM12.808 6c.292.821.375 1.346 1.01 1.609.637.264 1.073-.052 1.854-.423l1.142 1.142c-.373.787-.687 1.218-.423 1.854.262.634.784.716 1.609 1.009v1.617c-.816.29-1.347.375-1.61 1.01-.264.636.052 1.071.424 1.853l-1.142 1.142c-.79-.375-1.219-.687-1.85-.424-.639.265-.723.793-1.014 1.611h-1.616c-.292-.821-.375-1.347-1.01-1.61-.637-.264-1.072.052-1.854.423l-1.142-1.142c.366-.771.689-1.212.423-1.854-.263-.635-.793-.719-1.609-1.009v-1.617c.817-.29 1.346-.373 1.609-1.009.264-.637-.051-1.07-.423-1.854l1.142-1.142c.788.374 1.218.687 1.854.423.635-.263.719-.792 1.01-1.609h1.616zM12 14a2 2 0 110-4 2 2 0 010 4z"/></svg>